<svg xmlns="http://www.w3.org/2000/svg" width="45" viewBox="0 0 45 45" height="45" version="1.0"><defs><clipPath id="a"><path d="M 0 2.25 L 45 2.25 L 45 42.75 L 0 42.75 Z M 0 2.25"/></clipPath></defs><g clip-path="url(#a)"><path fill="#FFF" d="M 44.25 30.75 L 36 30.75 L 36 27.75 C 36 27.308594 35.957031 26.867188 35.871094 26.433594 C 35.785156 26 35.65625 25.578125 35.484375 25.167969 C 35.316406 24.757812 35.109375 24.367188 34.863281 24 C 34.617188 23.632812 34.335938 23.289062 34.023438 22.976562 C 33.710938 22.664062 33.367188 22.382812 33 22.136719 C 32.632812 21.890625 32.242188 21.683594 31.832031 21.515625 C 31.421875 21.34375 31 21.214844 30.566406 21.128906 C 30.132812 21.042969 29.691406 21 29.25 21 L 25.785156 21 C 25.382812 20.65625 25.09375 20.234375 24.921875 19.734375 L 25.851562 19.199219 C 26.671875 18.734375 27.316406 18.09375 27.789062 17.277344 C 28.261719 16.460938 28.5 15.582031 28.5 14.640625 L 28.5 14.121094 C 28.671875 14.0625 28.832031 13.984375 28.980469 13.882812 C 29.132812 13.785156 29.269531 13.671875 29.390625 13.539062 C 29.515625 13.40625 29.621094 13.265625 29.710938 13.105469 C 29.800781 12.949219 29.867188 12.785156 29.917969 12.609375 C 29.964844 12.4375 29.992188 12.261719 30 12.082031 C 30.003906 11.902344 29.992188 11.722656 29.953125 11.546875 C 29.917969 11.371094 29.859375 11.199219 29.785156 11.035156 C 29.707031 10.875 29.609375 10.722656 29.496094 10.582031 L 29.578125 10.109375 C 29.660156 9.625 29.6875 9.140625 29.664062 8.648438 C 29.636719 8.160156 29.558594 7.679688 29.429688 7.207031 C 29.300781 6.734375 29.121094 6.28125 28.890625 5.847656 C 28.660156 5.414062 28.390625 5.011719 28.070312 4.636719 C 27.753906 4.261719 27.402344 3.925781 27.011719 3.628906 C 26.621094 3.332031 26.203125 3.082031 25.757812 2.875 C 25.3125 2.667969 24.851562 2.511719 24.375 2.40625 C 23.894531 2.300781 23.410156 2.25 22.921875 2.25 L 22.078125 2.25 C 21.589844 2.25 21.105469 2.300781 20.625 2.40625 C 20.144531 2.511719 19.683594 2.667969 19.238281 2.875 C 18.792969 3.082031 18.375 3.332031 17.984375 3.632812 C 17.59375 3.929688 17.242188 4.265625 16.925781 4.640625 C 16.609375 5.011719 16.335938 5.417969 16.105469 5.851562 C 15.878906 6.285156 15.699219 6.738281 15.566406 7.210938 C 15.4375 7.683594 15.359375 8.167969 15.335938 8.65625 C 15.3125 9.148438 15.339844 9.632812 15.421875 10.117188 L 15.503906 10.589844 C 15.390625 10.730469 15.296875 10.882812 15.21875 11.042969 C 15.140625 11.207031 15.085938 11.375 15.050781 11.550781 C 15.011719 11.726562 15 11.90625 15.003906 12.085938 C 15.011719 12.265625 15.039062 12.441406 15.089844 12.613281 C 15.136719 12.785156 15.207031 12.953125 15.292969 13.109375 C 15.382812 13.265625 15.488281 13.410156 15.609375 13.539062 C 15.734375 13.671875 15.871094 13.785156 16.019531 13.882812 C 16.171875 13.984375 16.332031 14.0625 16.5 14.121094 L 16.5 14.640625 C 16.5 15.582031 16.738281 16.460938 17.210938 17.277344 C 17.683594 18.089844 18.328125 18.734375 19.148438 19.199219 L 20.078125 19.734375 C 19.90625 20.234375 19.617188 20.65625 19.214844 21 L 15.75 21 C 15.308594 21 14.867188 21.042969 14.433594 21.128906 C 14 21.214844 13.578125 21.34375 13.167969 21.515625 C 12.757812 21.683594 12.367188 21.890625 12 22.136719 C 11.632812 22.382812 11.289062 22.664062 10.976562 22.976562 C 10.664062 23.289062 10.382812 23.632812 10.136719 24 C 9.890625 24.367188 9.683594 24.757812 9.515625 25.167969 C 9.34375 25.578125 9.214844 26 9.128906 26.433594 C 9.042969 26.867188 9 27.308594 9 27.75 L 9 30.75 L 0.75 30.75 C 0.542969 30.75 0.367188 30.824219 0.21875 30.96875 C 0.0742188 31.117188 0 31.292969 0 31.5 L 0 42 C 0 42.207031 0.0742188 42.382812 0.21875 42.53125 C 0.367188 42.675781 0.542969 42.75 0.75 42.75 L 44.25 42.75 C 44.457031 42.75 44.632812 42.675781 44.78125 42.53125 C 44.925781 42.382812 45 42.207031 45 42 L 45 31.5 C 45 31.292969 44.925781 31.117188 44.78125 30.96875 C 44.632812 30.824219 44.457031 30.75 44.25 30.75 Z M 18.082031 5.601562 C 18.582031 5.015625 19.179688 4.558594 19.878906 4.238281 C 20.574219 3.914062 21.308594 3.75 22.078125 3.75 L 22.921875 3.75 C 23.292969 3.75 23.660156 3.789062 24.023438 3.867188 C 24.386719 3.945312 24.738281 4.0625 25.078125 4.214844 C 25.417969 4.367188 25.734375 4.554688 26.035156 4.777344 C 26.335938 5 26.605469 5.25 26.851562 5.527344 C 27.097656 5.808594 27.3125 6.109375 27.496094 6.433594 C 27.675781 6.757812 27.824219 7.097656 27.933594 7.453125 C 28.042969 7.808594 28.113281 8.171875 28.144531 8.542969 C 28.179688 8.914062 28.171875 9.285156 28.125 9.652344 C 27.84375 9.265625 27.480469 8.976562 27.039062 8.789062 C 26.398438 8.519531 25.761719 8.519531 25.125 8.789062 C 24.765625 8.9375 24.390625 9.003906 24 9 C 23.652344 9 23.320312 8.941406 22.992188 8.824219 C 22.667969 8.710938 22.371094 8.542969 22.101562 8.324219 C 21.835938 8.105469 21.609375 7.847656 21.433594 7.550781 C 21.253906 7.257812 21.128906 6.9375 21.058594 6.601562 C 21.023438 6.421875 20.933594 6.277344 20.792969 6.164062 C 20.652344 6.050781 20.492188 5.996094 20.308594 6 C 19.578125 6.003906 18.90625 6.199219 18.285156 6.585938 C 17.667969 6.976562 17.199219 7.5 16.882812 8.160156 C 17.042969 7.195312 17.445312 6.34375 18.082031 5.601562 Z M 19.890625 17.894531 C 19.304688 17.5625 18.84375 17.105469 18.507812 16.523438 C 18.167969 15.941406 18 15.3125 18 14.640625 L 18 13.5 C 18 13.292969 17.925781 13.117188 17.78125 12.96875 C 17.632812 12.824219 17.457031 12.75 17.25 12.75 C 17.042969 12.75 16.867188 12.675781 16.71875 12.53125 C 16.574219 12.382812 16.5 12.207031 16.5 12 C 16.5 11.792969 16.574219 11.617188 16.71875 11.46875 C 16.867188 11.324219 17.042969 11.25 17.25 11.25 C 17.457031 11.25 17.632812 11.175781 17.78125 11.03125 C 17.925781 10.882812 18 10.707031 18 10.5 L 18 9.824219 C 18 9.566406 18.042969 9.3125 18.128906 9.066406 C 18.214844 8.820312 18.335938 8.597656 18.5 8.390625 C 18.660156 8.1875 18.851562 8.015625 19.070312 7.875 C 19.289062 7.734375 19.523438 7.636719 19.777344 7.574219 C 19.9375 8.003906 20.160156 8.402344 20.441406 8.761719 C 20.722656 9.125 21.054688 9.4375 21.429688 9.699219 C 21.808594 9.960938 22.214844 10.160156 22.652344 10.296875 C 23.09375 10.433594 23.539062 10.5 24 10.5 C 24.585938 10.5 25.152344 10.390625 25.695312 10.164062 C 25.945312 10.0625 26.195312 10.0625 26.445312 10.164062 C 26.726562 10.28125 26.925781 10.484375 27.039062 10.769531 C 27.164062 11.097656 27.402344 11.257812 27.75 11.25 C 27.957031 11.25 28.132812 11.324219 28.28125 11.46875 C 28.425781 11.617188 28.5 11.792969 28.5 12 C 28.5 12.207031 28.425781 12.382812 28.28125 12.53125 C 28.132812 12.675781 27.957031 12.75 27.75 12.75 C 27.542969 12.75 27.367188 12.824219 27.21875 12.96875 C 27.074219 13.117188 27 13.292969 27 13.5 L 27 14.640625 C 27 15.3125 26.832031 15.941406 26.492188 16.523438 C 26.15625 17.105469 25.695312 17.5625 25.109375 17.894531 L 23.609375 18.75 C 23.261719 18.949219 22.886719 19.050781 22.484375 19.050781 C 22.082031 19.050781 21.707031 18.949219 21.359375 18.75 Z M 24.75 22.050781 C 24.707031 22.3125 24.621094 22.5625 24.488281 22.792969 C 24.355469 23.023438 24.1875 23.226562 23.984375 23.398438 C 23.78125 23.570312 23.554688 23.703125 23.304688 23.796875 C 23.054688 23.886719 22.796875 23.933594 22.53125 23.933594 C 22.261719 23.933594 22.003906 23.886719 21.753906 23.796875 C 21.503906 23.703125 21.277344 23.570312 21.074219 23.398438 C 20.871094 23.226562 20.703125 23.023438 20.570312 22.792969 C 20.441406 22.5625 20.351562 22.3125 20.308594 22.050781 C 20.824219 21.582031 21.207031 21.027344 21.464844 20.386719 C 22.175781 20.597656 22.886719 20.597656 23.59375 20.386719 C 23.851562 21.027344 24.238281 21.582031 24.75 22.050781 Z M 10.5 27.75 C 10.5 27.40625 10.535156 27.0625 10.601562 26.726562 C 10.667969 26.386719 10.769531 26.058594 10.898438 25.742188 C 11.03125 25.421875 11.191406 25.121094 11.386719 24.832031 C 11.578125 24.546875 11.792969 24.28125 12.039062 24.039062 C 12.28125 23.792969 12.546875 23.578125 12.832031 23.386719 C 13.121094 23.191406 13.421875 23.03125 13.742188 22.898438 C 14.058594 22.769531 14.386719 22.667969 14.726562 22.601562 C 15.0625 22.535156 15.40625 22.5 15.75 22.5 L 18.824219 22.5 C 18.910156 22.925781 19.066406 23.320312 19.289062 23.691406 C 19.511719 24.0625 19.792969 24.382812 20.125 24.65625 C 20.460938 24.929688 20.832031 25.140625 21.238281 25.285156 C 21.648438 25.429688 22.066406 25.503906 22.5 25.503906 C 22.933594 25.503906 23.351562 25.429688 23.761719 25.285156 C 24.167969 25.140625 24.539062 24.929688 24.875 24.65625 C 25.207031 24.382812 25.488281 24.0625 25.710938 23.691406 C 25.933594 23.320312 26.089844 22.925781 26.175781 22.5 L 29.25 22.5 C 29.59375 22.5 29.9375 22.535156 30.273438 22.601562 C 30.613281 22.667969 30.941406 22.769531 31.257812 22.898438 C 31.578125 23.03125 31.878906 23.191406 32.167969 23.386719 C 32.453125 23.578125 32.71875 23.792969 32.960938 24.039062 C 33.207031 24.28125 33.421875 24.546875 33.613281 24.832031 C 33.808594 25.121094 33.96875 25.421875 34.101562 25.742188 C 34.230469 26.058594 34.332031 26.386719 34.398438 26.726562 C 34.464844 27.0625 34.5 27.40625 34.5 27.75 L 34.5 30.75 L 10.5 30.75 Z M 43.5 41.25 L 1.5 41.25 L 1.5 32.25 L 43.5 32.25 Z M 43.5 41.25"/></g><path fill="#FFF" d="M 15.75 39 L 29.25 39 C 29.457031 39 29.632812 38.925781 29.78125 38.78125 C 29.925781 38.632812 30 38.457031 30 38.25 L 30 35.25 C 30 35.042969 29.925781 34.867188 29.78125 34.71875 C 29.632812 34.574219 29.457031 34.5 29.25 34.5 L 15.75 34.5 C 15.542969 34.5 15.367188 34.574219 15.21875 34.71875 C 15.074219 34.867188 15 35.042969 15 35.25 L 15 38.25 C 15 38.457031 15.074219 38.632812 15.21875 38.78125 C 15.367188 38.925781 15.542969 39 15.75 39 Z M 16.5 36 L 28.5 36 L 28.5 37.5 L 16.5 37.5 Z M 16.5 36"/></svg>