<svg xmlns="http://www.w3.org/2000/svg" width="45" viewBox="0 0 45 45" height="45" version="1.0"><defs><clipPath id="a"><path d="M 0 0.507812 L 45 0.507812 L 45 44.757812 L 0 44.757812 Z M 0 0.507812"/></clipPath><clipPath id="b"><path d="M 22.5 12.675781 L 32.25 12.675781 L 32.25 22.425781 L 22.5 22.425781 Z M 22.5 12.675781"/></clipPath></defs><g clip-path="url(#a)"><path fill="#FFF" d="M 40.964844 1.683594 C 42.101562 1.628906 43.070312 2.511719 43.128906 3.660156 C 43.140625 3.957031 43.09375 4.253906 42.980469 4.527344 C 41.226562 8.949219 38.359375 12.828125 34.65625 15.785156 C 34.4375 15.957031 34.34375 16.25 34.421875 16.519531 L 40.835938 39.171875 C 40.902344 39.414062 40.835938 39.671875 40.65625 39.851562 L 37.699219 42.828125 C 37.164062 43.371094 36.292969 43.367188 35.757812 42.828125 C 35.640625 42.714844 35.550781 42.582031 35.480469 42.4375 L 26.960938 24.144531 C 26.800781 23.796875 26.390625 23.648438 26.050781 23.8125 C 25.992188 23.835938 25.9375 23.871094 25.886719 23.914062 C 21.429688 27.777344 16.800781 31.4375 12.011719 34.871094 C 11.789062 35.03125 11.679688 35.304688 11.734375 35.570312 L 12.933594 41.449219 C 12.992188 41.734375 12.867188 42.03125 12.617188 42.179688 L 10.988281 43.175781 C 10.660156 43.375 10.238281 43.269531 10.039062 42.945312 C 10.027344 42.925781 10.019531 42.910156 10.011719 42.894531 L 7.511719 37.832031 C 7.445312 37.695312 7.332031 37.585938 7.203125 37.515625 L 2.171875 35 C 1.832031 34.832031 1.691406 34.417969 1.859375 34.074219 C 1.871094 34.058594 1.878906 34.039062 1.886719 34.023438 L 2.878906 32.378906 C 3.027344 32.128906 3.320312 32 3.601562 32.058594 L 9.441406 33.265625 C 9.710938 33.320312 9.980469 33.210938 10.140625 32.992188 C 13.554688 28.171875 17.1875 23.511719 21.03125 19.027344 C 21.277344 18.738281 21.25 18.300781 20.960938 18.054688 C 20.910156 18.011719 20.855469 17.976562 20.800781 17.949219 L 2.617188 9.375 C 1.929688 9.050781 1.632812 8.226562 1.953125 7.535156 C 2.023438 7.390625 2.117188 7.257812 2.230469 7.144531 L 5.1875 4.167969 C 5.363281 3.992188 5.625 3.921875 5.863281 3.992188 L 28.382812 10.445312 C 28.648438 10.519531 28.933594 10.429688 29.109375 10.210938 C 32.042969 6.484375 35.902344 3.597656 40.292969 1.832031 C 40.507812 1.746094 40.730469 1.699219 40.957031 1.6875 Z M 40.898438 0.511719 C 40.542969 0.53125 40.1875 0.605469 39.859375 0.738281 C 35.378906 2.535156 31.433594 5.457031 28.390625 9.222656 L 6.179688 2.855469 C 5.53125 2.671875 4.832031 2.851562 4.355469 3.335938 L 1.394531 6.308594 C 0.402344 7.3125 0.402344 8.933594 1.394531 9.9375 C 1.605469 10.144531 1.851562 10.320312 2.117188 10.445312 L 19.722656 18.742188 C 16.078125 23.023438 12.625 27.464844 9.367188 32.046875 L 3.835938 30.90625 C 3.0625 30.75 2.277344 31.09375 1.871094 31.769531 L 0.878906 33.410156 C 0.34375 34.296875 0.625 35.445312 1.503906 35.980469 C 1.546875 36.007812 1.59375 36.03125 1.640625 36.054688 L 6.527344 38.503906 L 8.957031 43.417969 C 9.417969 44.34375 10.527344 44.722656 11.453125 44.261719 C 11.5 44.238281 11.542969 44.210938 11.585938 44.1875 L 13.21875 43.1875 C 13.890625 42.777344 14.238281 41.988281 14.078125 41.210938 L 12.941406 35.644531 C 17.5 32.367188 21.910156 28.890625 26.164062 25.222656 L 34.414062 42.9375 C 35.011719 44.222656 36.527344 44.773438 37.804688 44.175781 C 38.070312 44.046875 38.316406 43.875 38.523438 43.664062 L 41.484375 40.6875 C 41.960938 40.203125 42.140625 39.503906 41.957031 38.851562 L 35.628906 16.507812 C 39.371094 13.449219 42.273438 9.472656 44.0625 4.96875 C 44.726562 3.296875 43.914062 1.402344 42.253906 0.738281 C 41.824219 0.566406 41.359375 0.488281 40.898438 0.511719"/></g><g clip-path="url(#b)"><path fill="#FFF" d="M 23.011719 17.550781 C 23.011719 19.957031 24.96875 21.910156 27.375 21.910156 C 29.78125 21.910156 31.738281 19.957031 31.738281 17.550781 C 31.738281 15.144531 29.78125 13.1875 27.375 13.1875 C 24.96875 13.1875 23.011719 15.144531 23.011719 17.550781 Z M 32.25 17.550781 C 32.25 20.238281 30.0625 22.425781 27.375 22.425781 C 24.6875 22.425781 22.5 20.238281 22.5 17.550781 C 22.5 14.863281 24.6875 12.675781 27.375 12.675781 C 30.0625 12.675781 32.25 14.863281 32.25 17.550781"/></g><path fill="#FFF" d="M 27.632812 19.21875 C 27.804688 19.183594 27.941406 19.105469 28.050781 18.980469 C 28.15625 18.851562 28.210938 18.703125 28.210938 18.53125 C 28.210938 18.378906 28.167969 18.246094 28.074219 18.136719 C 27.984375 18.023438 27.839844 17.941406 27.632812 17.882812 Z M 27.136719 15.570312 C 27 15.617188 26.894531 15.695312 26.8125 15.804688 C 26.734375 15.914062 26.695312 16.035156 26.695312 16.167969 C 26.695312 16.289062 26.730469 16.402344 26.804688 16.503906 C 26.875 16.609375 26.988281 16.691406 27.136719 16.757812 Z M 27.136719 19.167969 L 27.136719 17.734375 C 26.6875 17.605469 26.359375 17.414062 26.148438 17.152344 C 25.941406 16.894531 25.835938 16.578125 25.835938 16.210938 C 25.835938 15.835938 25.957031 15.519531 26.191406 15.265625 C 26.429688 15.011719 26.742188 14.863281 27.136719 14.824219 L 27.136719 14.484375 L 27.632812 14.484375 L 27.632812 14.824219 C 27.996094 14.867188 28.285156 14.992188 28.5 15.195312 C 28.714844 15.402344 28.851562 15.675781 28.910156 16.015625 L 28.042969 16.128906 C 27.992188 15.859375 27.855469 15.679688 27.632812 15.582031 L 27.632812 16.921875 C 28.179688 17.070312 28.554688 17.261719 28.753906 17.5 C 28.953125 17.734375 29.050781 18.039062 29.050781 18.410156 C 29.050781 18.820312 28.925781 19.171875 28.675781 19.453125 C 28.425781 19.738281 28.078125 19.910156 27.632812 19.972656 L 27.632812 20.613281 L 27.136719 20.613281 L 27.136719 19.992188 C 26.742188 19.945312 26.417969 19.796875 26.171875 19.550781 C 25.925781 19.300781 25.769531 18.953125 25.699219 18.503906 L 26.59375 18.410156 C 26.628906 18.59375 26.699219 18.75 26.800781 18.882812 C 26.898438 19.015625 27.011719 19.109375 27.136719 19.167969"/></svg>