<svg xmlns="http://www.w3.org/2000/svg" width="45" viewBox="0 0 45 45" height="45" version="1.0"><defs><clipPath id="a"><path d="M 0 27 L 44 27 L 44 43.6875 L 0 43.6875 Z M 0 27"/></clipPath><clipPath id="b"><path d="M 6 1.6875 L 45 1.6875 L 45 27 L 6 27 Z M 6 1.6875"/></clipPath></defs><g clip-path="url(#a)"><path fill="#FFF" d="M 5.015625 29.40625 L 10.011719 29.40625 L 10.011719 39.488281 L 5.015625 39.488281 Z M 13.789062 30.246094 C 16.535156 30.246094 19.285156 30.902344 21.742188 32.140625 C 22.550781 32.550781 23.460938 32.765625 24.367188 32.765625 L 30.824219 32.765625 C 31.515625 32.765625 32.074219 33.332031 32.074219 34.027344 C 32.074219 34.628906 31.652344 35.125 31.101562 35.253906 C 30.992188 35.265625 30.882812 35.289062 30.773438 35.289062 L 20.835938 35.289062 L 20.835938 36.96875 L 30.773438 36.96875 C 30.792969 36.96875 30.808594 36.964844 30.824219 36.964844 L 30.824219 36.96875 C 30.839844 36.96875 30.859375 36.960938 30.875 36.960938 C 31.539062 36.949219 32.183594 36.8125 32.796875 36.550781 L 39.753906 33.570312 C 40.089844 33.425781 40.460938 33.425781 40.796875 33.566406 C 41.140625 33.714844 41.40625 33.992188 41.546875 34.351562 C 41.691406 34.714844 41.679688 35.109375 41.523438 35.46875 C 41.371094 35.816406 41.101562 36.078125 40.753906 36.210938 L 27.894531 41.160156 C 24.859375 42.328125 21.53125 42.289062 18.527344 41.058594 L 11.675781 38.1875 L 11.675781 30.246094 Z M 4.183594 41.167969 L 10.84375 41.167969 C 11.304688 41.167969 11.675781 40.789062 11.675781 40.328125 L 11.675781 40.007812 L 17.890625 42.609375 C 19.644531 43.328125 21.488281 43.691406 23.339844 43.691406 C 25.078125 43.691406 26.820312 43.371094 28.488281 42.730469 L 41.347656 37.78125 C 42.109375 37.488281 42.714844 36.90625 43.050781 36.148438 C 43.382812 35.375 43.402344 34.519531 43.097656 33.734375 C 42.789062 32.953125 42.199219 32.339844 41.4375 32.019531 C 40.683594 31.699219 39.855469 31.699219 39.109375 32.023438 L 33.710938 34.335938 C 33.71875 34.234375 33.738281 34.132812 33.738281 34.027344 C 33.738281 32.40625 32.429688 31.085938 30.824219 31.085938 L 24.367188 31.085938 C 23.714844 31.085938 23.066406 30.933594 22.484375 30.636719 C 19.800781 29.28125 16.792969 28.566406 13.789062 28.566406 L 11.675781 28.566406 C 11.675781 28.105469 11.304688 27.726562 10.84375 27.726562 L 4.183594 27.726562 C 3.726562 27.726562 3.351562 28.105469 3.351562 28.566406 L 0.0234375 28.566406 L 0.0234375 30.246094 L 3.351562 30.246094 L 3.351562 38.648438 L 0.0234375 38.648438 L 0.0234375 40.328125 L 3.351562 40.328125 C 3.351562 40.789062 3.726562 41.167969 4.183594 41.167969"/></g><g clip-path="url(#b)"><path fill="#FFF" d="M 9.179688 22.6875 L 42.480469 22.6875 C 42.9375 22.6875 43.3125 23.066406 43.3125 23.527344 C 43.3125 23.988281 42.9375 24.367188 42.480469 24.367188 L 9.179688 24.367188 C 8.722656 24.367188 8.347656 23.988281 8.347656 23.527344 C 8.347656 23.066406 8.722656 22.6875 9.179688 22.6875 Z M 25.828125 6.726562 C 33.8125 6.726562 40.359375 13.058594 40.792969 21.007812 L 10.867188 21.007812 C 11.300781 13.058594 17.847656 6.726562 25.828125 6.726562 Z M 24.996094 5.046875 L 24.996094 4.207031 C 24.996094 3.746094 25.371094 3.367188 25.828125 3.367188 C 26.289062 3.367188 26.664062 3.746094 26.664062 4.207031 L 26.664062 5.046875 Z M 9.179688 26.046875 L 42.480469 26.046875 C 43.859375 26.046875 44.976562 24.917969 44.976562 23.527344 C 44.976562 22.136719 43.859375 21.007812 42.480469 21.007812 L 42.4375 21.007812 C 42.039062 12.984375 36.054688 6.4375 28.328125 5.257812 L 28.328125 4.207031 C 28.328125 2.816406 27.207031 1.6875 25.828125 1.6875 C 24.449219 1.6875 23.332031 2.816406 23.332031 4.207031 L 23.332031 5.257812 C 15.605469 6.4375 9.617188 12.984375 9.222656 21.007812 L 9.179688 21.007812 C 7.800781 21.007812 6.683594 22.136719 6.683594 23.527344 C 6.683594 24.917969 7.800781 26.046875 9.179688 26.046875"/></g><path fill="#FFF" d="M 21.390625 9.171875 L 21.945312 10.757812 C 22.453125 10.578125 22.972656 10.429688 23.5 10.324219 L 23.167969 8.675781 C 22.566406 8.800781 21.964844 8.964844 21.390625 9.171875"/><path fill="#FFF" d="M 14.046875 15.574219 L 15.519531 16.359375 C 16.621094 14.253906 18.304688 12.554688 20.394531 11.441406 L 19.613281 9.960938 C 17.230469 11.230469 15.308594 13.171875 14.046875 15.574219"/></svg>